<svg xmlns="http://www.w3.org/2000/svg" width="500" height="500" viewBox="0 0 500 500" version="1.1"><path d="M 201.500 77.961 C 185.930 81.360, 174.820 86.461, 162.086 96.056 C 137.236 114.782, 121.415 146.460, 117.063 186.211 C 109.746 253.042, 142.820 332.107, 197.068 377.470 C 227.309 402.757, 259.195 414.931, 292 413.717 C 319.474 412.700, 339.992 403.386, 359.013 383.295 C 372.640 368.903, 382.301 350.604, 388.054 328.292 C 391.704 314.133, 391.711 312.021, 388.071 322.500 C 378.415 350.300, 361.983 369.939, 338.500 381.742 C 320.195 390.943, 296.289 392.401, 272 385.797 C 252.810 380.580, 229.694 367.092, 213.500 351.664 C 205.591 344.130, 204.803 343.080, 207 343.001 C 208.375 342.952, 211.193 342.308, 213.261 341.570 C 215.544 340.756, 217.253 340.600, 217.609 341.176 C 218.531 342.668, 223.090 344.106, 224.989 343.504 C 225.937 343.203, 228.824 340.238, 231.405 336.915 C 237.247 329.391, 239.729 329.180, 242 336.014 C 242.825 338.497, 243.864 341.084, 244.309 341.764 C 245.436 343.485, 250.497 343.311, 252 341.500 C 253.709 339.441, 255.229 339.619, 257.378 342.129 C 258.988 344.009, 259.950 344.198, 265.610 343.743 C 269.135 343.460, 272.690 342.672, 273.510 341.992 C 275.591 340.265, 275.644 322.787, 273.575 320.717 C 271.928 319.070, 254.653 318.029, 238.500 318.604 C 233 318.799, 227.035 318.954, 225.244 318.948 C 223.453 318.942, 221.087 319.418, 219.987 320.007 C 218.481 320.813, 216.810 320.659, 213.221 319.385 C 207.639 317.402, 201.929 318.071, 198.944 321.056 C 197.483 322.517, 196.989 324.428, 196.957 328.750 L 196.915 334.500 192.924 330 C 187.332 323.694, 174.802 304.805, 170.868 296.750 L 167.571 290 151.785 290 C 138.693 290, 136 289.754, 136 288.556 C 136 287.762, 138.724 274.824, 142.054 259.806 L 148.108 232.500 146.900 219.842 C 144.521 194.898, 147.169 170.886, 154.608 149.968 L 158.182 139.918 151.072 130.459 L 143.962 121 156.576 121 L 169.189 121 176.249 113.440 C 191.999 96.576, 212.054 86.986, 235 85.348 C 248.583 84.378, 268.114 87.691, 280.754 93.109 C 288.996 96.642, 286.267 94.307, 276.802 89.729 C 257.848 80.560, 244.336 77.101, 225 76.470 C 213.042 76.079, 208.922 76.340, 201.500 77.961 M 254.084 134.750 C 256.955 140.113, 259.683 144.993, 260.146 145.595 C 260.622 146.214, 256.805 178.696, 251.357 220.375 C 246.060 260.902, 241.985 294.318, 242.301 294.634 C 242.617 294.950, 251.566 292.320, 262.187 288.790 L 281.500 282.372 297.396 257.665 C 306.139 244.077, 313.442 233.109, 313.625 233.292 C 313.808 233.475, 312.627 247.744, 311 265 C 309.373 282.256, 308.247 296.580, 308.497 296.831 C 309.100 297.433, 350.159 281.982, 351.673 280.584 C 352.318 279.988, 368.616 244.850, 387.890 202.500 L 422.933 125.500 405.902 125.226 C 396.536 125.075, 381.430 125.075, 372.334 125.226 L 355.796 125.500 363.504 135.500 C 367.743 141, 371.427 146.038, 371.692 146.696 C 371.956 147.354, 366.621 160.078, 359.836 174.972 L 347.500 202.051 347 188.448 L 346.500 174.844 339.500 168.416 C 335.650 164.880, 330.392 160.173, 327.816 157.956 L 323.132 153.925 319.195 160.712 C 317.030 164.446, 310.443 175.931, 304.558 186.235 C 298.674 196.539, 293.529 205.173, 293.127 205.422 C 292.529 205.791, 295.383 184.838, 303.502 129.250 L 304.123 125 276.493 125 L 248.863 125 254.084 134.750 M 156.700 128.287 C 157.140 128.994, 160.782 133.898, 164.794 139.183 L 172.088 148.793 157.544 215.180 C 149.545 251.692, 143 282.118, 143 282.793 C 143 283.748, 153.457 283.962, 190.250 283.760 L 237.499 283.500 246.335 215.857 L 255.172 148.214 249.347 137.607 L 243.523 127 199.712 127 C 164.252 127, 156.053 127.245, 156.700 128.287 M 208.665 163.750 C 207.842 167.463, 206.428 173.909, 205.523 178.076 C 203.879 185.643, 203.870 185.656, 198.438 188.948 C 195.447 190.761, 193 192.508, 193 192.832 C 193 193.155, 194.164 197.521, 195.587 202.535 L 198.174 211.652 194.055 230.576 C 191.790 240.984, 189.695 250.287, 189.401 251.250 C 188.907 252.864, 190.064 253, 204.332 253 L 219.799 253 221.496 245.250 C 222.429 240.988, 224.017 233.905, 225.024 229.512 C 226.032 225.118, 226.710 221.377, 226.531 221.197 C 226.352 221.018, 222.963 222.504, 219 224.500 C 215.037 226.496, 211.606 227.939, 211.375 227.708 C 210.603 226.937, 202.119 196.548, 202.553 196.113 C 202.789 195.878, 210.520 191.345, 219.733 186.041 L 236.483 176.398 238.579 166.699 L 240.674 157 225.417 157 L 210.160 157 208.665 163.750 M 202 320.893 C 199.580 321.564, 199.491 321.896, 199.214 331.293 L 198.928 341 203.714 340.998 C 209.896 340.996, 215.386 338.307, 215.845 335.056 C 216.043 333.652, 215.522 332.124, 214.622 331.465 C 213.294 330.494, 213.241 329.822, 214.277 327.072 C 215.394 324.106, 215.296 323.661, 213.139 321.913 C 210.762 319.987, 206.632 319.608, 202 320.893 M 229.818 322.500 C 228.441 325.522, 227.845 325.591, 225.500 323 C 223.343 320.617, 222.961 320.574, 220.441 322.430 C 218.562 323.815, 218.607 323.971, 221.876 327.358 L 225.252 330.855 222.626 335.554 C 219.341 341.431, 219.352 342.004, 222.750 341.983 C 225.197 341.968, 226.122 340.840, 231.153 331.733 C 236.825 321.467, 237.015 320.052, 232.729 320.015 C 231.754 320.007, 230.445 321.125, 229.818 322.500 M 248 320.688 C 240.244 321.273, 239 321.802, 239 324.519 C 239 326.609, 239.473 327, 242 327 L 245 327 245 334.327 L 245 341.654 248 341.213 L 251 340.773 251 333.387 L 251 326 254 326 C 256.667 326, 257 325.667, 257 323 C 257 320.504, 256.622 320.029, 254.750 320.175 C 253.512 320.271, 250.475 320.502, 248 320.688 M 262.250 321.723 L 259 322.127 259 332.063 L 259 342 262.875 342 C 270.240 342, 273 340.995, 273 338.314 C 273 335.983, 272.799 335.908, 268.372 336.571 C 264.668 337.127, 263.836 336.990, 264.200 335.883 C 264.467 335.074, 266.387 334.372, 268.828 334.193 C 272.501 333.922, 273 333.593, 273 331.443 C 273 329.214, 272.605 329, 268.500 329 C 264.037 329, 262.541 327.774, 265.582 326.607 C 266.452 326.273, 268.477 326, 270.082 326 C 272.528 326, 273 325.596, 273 323.500 C 273 321.249, 272.626 321.016, 269.250 321.160 C 267.188 321.248, 264.038 321.502, 262.250 321.723 M 297.729 321.703 C 299.373 322.021, 300.243 323.233, 301.039 326.317 C 303.258 334.912, 303.179 334.749, 304.014 332.484 C 304.416 331.393, 305.048 328.475, 305.418 326 C 306.045 321.807, 305.985 321.634, 304.534 323.456 C 302.997 325.388, 302.958 325.385, 301.432 323.206 C 300.557 321.957, 298.936 321.059, 297.693 321.136 L 295.500 321.272 297.729 321.703 M 309.100 321.802 L 311.700 322.104 309.820 329.802 C 308.786 334.036, 307.704 338.850, 307.415 340.500 L 306.889 343.500 308.476 340.750 C 310.501 337.242, 311.293 337.289, 312.694 341 C 313.743 343.778, 314.193 344, 318.788 344 C 321.517 344, 325.156 343.719, 326.875 343.375 L 330 342.750 330 332.441 L 330 322.133 332.750 321.743 C 334.262 321.528, 328.975 321.386, 321 321.426 C 313.025 321.467, 307.670 321.636, 309.100 321.802 M 364.500 322.054 C 363.180 322.656, 364.541 322.760, 368.500 322.358 C 371.800 322.023, 374.688 321.581, 374.917 321.375 C 375.804 320.577, 366.391 321.190, 364.500 322.054 M 289.389 323.500 C 291.841 333.462, 292.247 334.482, 292.978 332.500 C 293.384 331.400, 294.041 328.727, 294.439 326.560 C 295.090 323.011, 295.002 322.753, 293.550 323.959 C 292.179 325.096, 291.710 325.012, 290.417 323.398 C 288.933 321.546, 288.908 321.548, 289.389 323.500 M 317.250 322.723 L 314 323.127 314 333.063 L 314 343 317.875 343 C 325.240 343, 328 341.995, 328 339.314 C 328 336.983, 327.799 336.908, 323.372 337.571 C 319.668 338.127, 318.836 337.990, 319.200 336.883 C 319.467 336.074, 321.387 335.372, 323.828 335.193 C 327.501 334.922, 328 334.593, 328 332.443 C 328 330.214, 327.605 330, 323.500 330 C 319.037 330, 317.541 328.774, 320.582 327.607 C 321.452 327.273, 323.477 327, 325.082 327 C 327.528 327, 328 326.596, 328 324.500 C 328 322.249, 327.626 322.016, 324.250 322.160 C 322.188 322.248, 319.038 322.502, 317.250 322.723 M 336.116 329.262 L 336 337.024 340 336.384 C 343.778 335.780, 344 335.884, 344 338.265 C 344 341.280, 342.443 342, 335.918 342 C 333.065 342, 331 342.453, 331 343.079 C 331 343.726, 332.102 343.934, 333.750 343.598 C 335.262 343.289, 338.637 342.944, 341.250 342.831 L 346 342.626 345.864 332.563 C 345.789 327.028, 345.555 323.625, 345.344 325 C 343.920 334.281, 344.056 334, 341.016 334 C 338.319 334, 338.080 333.678, 337.498 329.250 C 336.441 321.217, 336.236 321.219, 336.116 329.262 M 352.185 329.762 L 352 337.024 356 336.384 C 359.778 335.780, 360 335.884, 360 338.265 C 360 341.297, 358.447 342, 351.752 342 C 348.955 342, 346.930 342.263, 347.251 342.584 C 348.284 343.617, 370.395 344.074, 373.500 343.127 C 375.657 342.468, 374.463 342.362, 369.250 342.750 L 362 343.290 361.881 333.395 C 361.769 324.060, 361.709 323.791, 360.821 328.649 C 360.092 332.637, 359.397 333.924, 357.742 334.357 C 354.508 335.203, 353.137 333.371, 352.734 327.669 C 352.427 323.305, 352.341 323.631, 352.185 329.762 M 376 325 C 376 326.449, 375.333 327, 373.582 327 C 372.252 327, 370.452 327.273, 369.582 327.607 C 366.689 328.717, 367.948 330, 371.930 330 C 375.233 330, 375.919 330.360, 376.222 332.250 C 376.421 333.488, 376.613 331.913, 376.649 328.750 C 376.685 325.587, 376.554 323, 376.357 323 C 376.161 323, 376 323.900, 376 325 M 283.093 324.948 C 282.959 327.032, 288.207 343.696, 288.621 342.500 C 288.812 341.950, 287.667 337.450, 286.077 332.500 C 284.488 327.550, 283.145 324.152, 283.093 324.948 M 204 327 C 204 329.109, 205.576 329.555, 207.878 328.096 C 209.666 326.964, 208.437 325, 205.941 325 C 204.667 325, 204 325.687, 204 327 M 205.250 332.662 C 203.589 333.332, 203.639 337, 205.309 337 C 206.029 337, 207.491 336.334, 208.559 335.519 C 210.239 334.237, 210.298 333.903, 209 333.034 C 207.364 331.940, 207.105 331.914, 205.250 332.662 M 368 336.628 C 368 337.967, 368.710 338.142, 372 337.616 C 375.638 337.034, 376 337.173, 376 339.155 C 376 340.353, 376.279 341.054, 376.620 340.713 C 376.961 340.372, 376.953 338.947, 376.601 337.547 C 376.050 335.351, 375.413 335, 371.981 335 C 368.970 335, 368 335.397, 368 336.628 M 296.986 337.191 C 296.979 337.911, 296.683 339.583, 296.329 340.906 C 295.866 342.638, 296.022 343.105, 296.886 342.570 C 297.547 342.162, 298.716 342.349, 299.483 342.986 C 300.251 343.623, 302.144 343.954, 303.690 343.722 C 306.445 343.308, 306.437 343.297, 303.329 343.150 C 300.672 343.024, 300.053 342.516, 299.503 340.011 C 298.823 336.917, 297.010 334.886, 296.986 337.191" stroke="none" fill="#2f667e" fill-rule="evenodd"/><path d="M 0 250.002 L 0 500.004 250.250 499.752 L 500.500 499.500 500.752 249.750 L 501.004 0 250.502 0 L 0 0 0 250.002 M 0.492 250.500 C 0.492 388, 0.608 444.101, 0.750 375.170 C 0.892 306.238, 0.892 193.738, 0.750 125.170 C 0.608 56.601, 0.492 113, 0.492 250.500 M 201.500 77.961 C 185.930 81.360, 174.820 86.461, 162.086 96.056 C 137.236 114.782, 121.415 146.460, 117.063 186.211 C 109.746 253.042, 142.820 332.107, 197.068 377.470 C 227.309 402.757, 259.195 414.931, 292 413.717 C 319.474 412.700, 339.992 403.386, 359.013 383.295 C 372.640 368.903, 382.301 350.604, 388.054 328.292 C 391.704 314.133, 391.711 312.021, 388.071 322.500 C 378.415 350.300, 361.983 369.939, 338.500 381.742 C 320.195 390.943, 296.289 392.401, 272 385.797 C 252.810 380.580, 229.694 367.092, 213.500 351.664 C 205.591 344.130, 204.803 343.080, 207 343.001 C 208.375 342.952, 211.193 342.308, 213.261 341.570 C 215.544 340.756, 217.253 340.600, 217.609 341.176 C 218.531 342.668, 223.090 344.106, 224.989 343.504 C 225.937 343.203, 228.824 340.238, 231.405 336.915 C 237.247 329.391, 239.729 329.180, 242 336.014 C 242.825 338.497, 243.864 341.084, 244.309 341.764 C 245.436 343.485, 250.497 343.311, 252 341.500 C 253.709 339.441, 255.229 339.619, 257.378 342.129 C 258.988 344.009, 259.950 344.198, 265.610 343.743 C 269.135 343.460, 272.690 342.672, 273.510 341.992 C 275.591 340.265, 275.644 322.787, 273.575 320.717 C 271.928 319.070, 254.653 318.029, 238.500 318.604 C 233 318.799, 227.035 318.954, 225.244 318.948 C 223.453 318.942, 221.087 319.418, 219.987 320.007 C 218.481 320.813, 216.810 320.659, 213.221 319.385 C 207.639 317.402, 201.929 318.071, 198.944 321.056 C 197.483 322.517, 196.989 324.428, 196.957 328.750 L 196.915 334.500 192.924 330 C 187.332 323.694, 174.802 304.805, 170.868 296.750 L 167.571 290 151.785 290 C 138.693 290, 136 289.754, 136 288.556 C 136 287.762, 138.724 274.824, 142.054 259.806 L 148.108 232.500 146.900 219.842 C 144.521 194.898, 147.169 170.886, 154.608 149.968 L 158.182 139.918 151.072 130.459 L 143.962 121 156.576 121 L 169.189 121 176.249 113.440 C 191.999 96.576, 212.054 86.986, 235 85.348 C 248.583 84.378, 268.114 87.691, 280.754 93.109 C 288.996 96.642, 286.267 94.307, 276.802 89.729 C 257.848 80.560, 244.336 77.101, 225 76.470 C 213.042 76.079, 208.922 76.340, 201.500 77.961 M 254.084 134.750 C 256.955 140.113, 259.683 144.993, 260.146 145.595 C 260.622 146.214, 256.805 178.696, 251.357 220.375 C 246.060 260.902, 241.985 294.318, 242.301 294.634 C 242.617 294.950, 251.566 292.320, 262.187 288.790 L 281.500 282.372 297.396 257.665 C 306.139 244.077, 313.442 233.109, 313.625 233.292 C 313.808 233.475, 312.627 247.744, 311 265 C 309.373 282.256, 308.247 296.580, 308.497 296.831 C 309.100 297.433, 350.159 281.982, 351.673 280.584 C 352.318 279.988, 368.616 244.850, 387.890 202.500 L 422.933 125.500 405.902 125.226 C 396.536 125.075, 381.430 125.075, 372.334 125.226 L 355.796 125.500 363.504 135.500 C 367.743 141, 371.427 146.038, 371.692 146.696 C 371.956 147.354, 366.621 160.078, 359.836 174.972 L 347.500 202.051 347 188.448 L 346.500 174.844 339.500 168.416 C 335.650 164.880, 330.392 160.173, 327.816 157.956 L 323.132 153.925 319.195 160.712 C 317.030 164.446, 310.443 175.931, 304.558 186.235 C 298.674 196.539, 293.529 205.173, 293.127 205.422 C 292.529 205.791, 295.383 184.838, 303.502 129.250 L 304.123 125 276.493 125 L 248.863 125 254.084 134.750 M 156.700 128.287 C 157.140 128.994, 160.782 133.898, 164.794 139.183 L 172.088 148.793 157.544 215.180 C 149.545 251.692, 143 282.118, 143 282.793 C 143 283.748, 153.457 283.962, 190.250 283.760 L 237.499 283.500 246.335 215.857 L 255.172 148.214 249.347 137.607 L 243.523 127 199.712 127 C 164.252 127, 156.053 127.245, 156.700 128.287 M 208.665 163.750 C 207.842 167.463, 206.428 173.909, 205.523 178.076 C 203.879 185.643, 203.870 185.656, 198.438 188.948 C 195.447 190.761, 193 192.508, 193 192.832 C 193 193.155, 194.164 197.521, 195.587 202.535 L 198.174 211.652 194.055 230.576 C 191.790 240.984, 189.695 250.287, 189.401 251.250 C 188.907 252.864, 190.064 253, 204.332 253 L 219.799 253 221.496 245.250 C 222.429 240.988, 224.017 233.905, 225.024 229.512 C 226.032 225.118, 226.710 221.377, 226.531 221.197 C 226.352 221.018, 222.963 222.504, 219 224.500 C 215.037 226.496, 211.606 227.939, 211.375 227.708 C 210.603 226.937, 202.119 196.548, 202.553 196.113 C 202.789 195.878, 210.520 191.345, 219.733 186.041 L 236.483 176.398 238.579 166.699 L 240.674 157 225.417 157 L 210.160 157 208.665 163.750 M 202 320.893 C 199.580 321.564, 199.491 321.896, 199.214 331.293 L 198.928 341 203.714 340.998 C 209.896 340.996, 215.386 338.307, 215.845 335.056 C 216.043 333.652, 215.522 332.124, 214.622 331.465 C 213.294 330.494, 213.241 329.822, 214.277 327.072 C 215.394 324.106, 215.296 323.661, 213.139 321.913 C 210.762 319.987, 206.632 319.608, 202 320.893 M 229.818 322.500 C 228.441 325.522, 227.845 325.591, 225.500 323 C 223.343 320.617, 222.961 320.574, 220.441 322.430 C 218.562 323.815, 218.607 323.971, 221.876 327.358 L 225.252 330.855 222.626 335.554 C 219.341 341.431, 219.352 342.004, 222.750 341.983 C 225.197 341.968, 226.122 340.840, 231.153 331.733 C 236.825 321.467, 237.015 320.052, 232.729 320.015 C 231.754 320.007, 230.445 321.125, 229.818 322.500 M 248 320.688 C 240.244 321.273, 239 321.802, 239 324.519 C 239 326.609, 239.473 327, 242 327 L 245 327 245 334.327 L 245 341.654 248 341.213 L 251 340.773 251 333.387 L 251 326 254 326 C 256.667 326, 257 325.667, 257 323 C 257 320.504, 256.622 320.029, 254.750 320.175 C 253.512 320.271, 250.475 320.502, 248 320.688 M 262.250 321.723 L 259 322.127 259 332.063 L 259 342 262.875 342 C 270.240 342, 273 340.995, 273 338.314 C 273 335.983, 272.799 335.908, 268.372 336.571 C 264.668 337.127, 263.836 336.990, 264.200 335.883 C 264.467 335.074, 266.387 334.372, 268.828 334.193 C 272.501 333.922, 273 333.593, 273 331.443 C 273 329.214, 272.605 329, 268.500 329 C 264.037 329, 262.541 327.774, 265.582 326.607 C 266.452 326.273, 268.477 326, 270.082 326 C 272.528 326, 273 325.596, 273 323.500 C 273 321.249, 272.626 321.016, 269.250 321.160 C 267.188 321.248, 264.038 321.502, 262.250 321.723 M 297.729 321.703 C 299.373 322.021, 300.243 323.233, 301.039 326.317 C 303.258 334.912, 303.179 334.749, 304.014 332.484 C 304.416 331.393, 305.048 328.475, 305.418 326 C 306.045 321.807, 305.985 321.634, 304.534 323.456 C 302.997 325.388, 302.958 325.385, 301.432 323.206 C 300.557 321.957, 298.936 321.059, 297.693 321.136 L 295.500 321.272 297.729 321.703 M 309.100 321.802 L 311.700 322.104 309.820 329.802 C 308.786 334.036, 307.704 338.850, 307.415 340.500 L 306.889 343.500 308.476 340.750 C 310.501 337.242, 311.293 337.289, 312.694 341 C 313.743 343.778, 314.193 344, 318.788 344 C 321.517 344, 325.156 343.719, 326.875 343.375 L 330 342.750 330 332.441 L 330 322.133 332.750 321.743 C 334.262 321.528, 328.975 321.386, 321 321.426 C 313.025 321.467, 307.670 321.636, 309.100 321.802 M 364.500 322.054 C 363.180 322.656, 364.541 322.760, 368.500 322.358 C 371.800 322.023, 374.688 321.581, 374.917 321.375 C 375.804 320.577, 366.391 321.190, 364.500 322.054 M 289.389 323.500 C 291.841 333.462, 292.247 334.482, 292.978 332.500 C 293.384 331.400, 294.041 328.727, 294.439 326.560 C 295.090 323.011, 295.002 322.753, 293.550 323.959 C 292.179 325.096, 291.710 325.012, 290.417 323.398 C 288.933 321.546, 288.908 321.548, 289.389 323.500 M 317.250 322.723 L 314 323.127 314 333.063 L 314 343 317.875 343 C 325.240 343, 328 341.995, 328 339.314 C 328 336.983, 327.799 336.908, 323.372 337.571 C 319.668 338.127, 318.836 337.990, 319.200 336.883 C 319.467 336.074, 321.387 335.372, 323.828 335.193 C 327.501 334.922, 328 334.593, 328 332.443 C 328 330.214, 327.605 330, 323.500 330 C 319.037 330, 317.541 328.774, 320.582 327.607 C 321.452 327.273, 323.477 327, 325.082 327 C 327.528 327, 328 326.596, 328 324.500 C 328 322.249, 327.626 322.016, 324.250 322.160 C 322.188 322.248, 319.038 322.502, 317.250 322.723 M 336.116 329.262 L 336 337.024 340 336.384 C 343.778 335.780, 344 335.884, 344 338.265 C 344 341.280, 342.443 342, 335.918 342 C 333.065 342, 331 342.453, 331 343.079 C 331 343.726, 332.102 343.934, 333.750 343.598 C 335.262 343.289, 338.637 342.944, 341.250 342.831 L 346 342.626 345.864 332.563 C 345.789 327.028, 345.555 323.625, 345.344 325 C 343.920 334.281, 344.056 334, 341.016 334 C 338.319 334, 338.080 333.678, 337.498 329.250 C 336.441 321.217, 336.236 321.219, 336.116 329.262 M 352.185 329.762 L 352 337.024 356 336.384 C 359.778 335.780, 360 335.884, 360 338.265 C 360 341.297, 358.447 342, 351.752 342 C 348.955 342, 346.930 342.263, 347.251 342.584 C 348.284 343.617, 370.395 344.074, 373.500 343.127 C 375.657 342.468, 374.463 342.362, 369.250 342.750 L 362 343.290 361.881 333.395 C 361.769 324.060, 361.709 323.791, 360.821 328.649 C 360.092 332.637, 359.397 333.924, 357.742 334.357 C 354.508 335.203, 353.137 333.371, 352.734 327.669 C 352.427 323.305, 352.341 323.631, 352.185 329.762 M 376 325 C 376 326.449, 375.333 327, 373.582 327 C 372.252 327, 370.452 327.273, 369.582 327.607 C 366.689 328.717, 367.948 330, 371.930 330 C 375.233 330, 375.919 330.360, 376.222 332.250 C 376.421 333.488, 376.613 331.913, 376.649 328.750 C 376.685 325.587, 376.554 323, 376.357 323 C 376.161 323, 376 323.900, 376 325 M 283.093 324.948 C 282.959 327.032, 288.207 343.696, 288.621 342.500 C 288.812 341.950, 287.667 337.450, 286.077 332.500 C 284.488 327.550, 283.145 324.152, 283.093 324.948 M 204 327 C 204 329.109, 205.576 329.555, 207.878 328.096 C 209.666 326.964, 208.437 325, 205.941 325 C 204.667 325, 204 325.687, 204 327 M 205.250 332.662 C 203.589 333.332, 203.639 337, 205.309 337 C 206.029 337, 207.491 336.334, 208.559 335.519 C 210.239 334.237, 210.298 333.903, 209 333.034 C 207.364 331.940, 207.105 331.914, 205.250 332.662 M 368 336.628 C 368 337.967, 368.710 338.142, 372 337.616 C 375.638 337.034, 376 337.173, 376 339.155 C 376 340.353, 376.279 341.054, 376.620 340.713 C 376.961 340.372, 376.953 338.947, 376.601 337.547 C 376.050 335.351, 375.413 335, 371.981 335 C 368.970 335, 368 335.397, 368 336.628 M 296.986 337.191 C 296.979 337.911, 296.683 339.583, 296.329 340.906 C 295.866 342.638, 296.022 343.105, 296.886 342.570 C 297.547 342.162, 298.716 342.349, 299.483 342.986 C 300.251 343.623, 302.144 343.954, 303.690 343.722 C 306.445 343.308, 306.437 343.297, 303.329 343.150 C 300.672 343.024, 300.053 342.516, 299.503 340.011 C 298.823 336.917, 297.010 334.886, 296.986 337.191" stroke="none" fill="#f7f8f8" fill-rule="evenodd"/></svg>