<svg width="190" height="46" viewBox="0 0" fill="none" xmlns="http://www.w3.org/2000/svg"><path d="M0 0v17.837a7.9 7.9 0 0 0 .584 3.012c.39.956.962 1.825 1.685 2.557a7.8 7.8 0 0 0 2.53 1.709c.947.396 1.962.6 2.987.6H19.61v-8.618h-9.279a1.94 1.94 0 0 1-1.375-.573 1.97 1.97 0 0 1-.573-1.384V8.241h11.202V0z" fill="#12CFAE"/><path d="M19.61 34h19.144V16.092c0-2.08-.82-4.074-2.278-5.546a7.76 7.76 0 0 0-5.502-2.3H19.61v8.85h9.018a1.94 1.94 0 0 1 1.378.575c.365.368.57.867.57 1.388v6.654H19.61zm35.225-9.54v7.834h-4.804v-21.72h8.09c4.357 0 7.387 2.91 7.387 6.956 0 4.045-2.98 6.93-7.362 6.93zm2.826-4.164c1.823 0 3.074-1.073 3.074-2.754 0-1.68-1.245-2.79-3.074-2.79h-2.795v5.544zm13.909 3.205 3.554-.552c.821-.119 1.095-.52 1.095-1.04 0-.892-.76-1.657-2.215-1.657a2.43 2.43 0 0 0-1.748.588 2.47 2.47 0 0 0-.841 1.651l-4.008-.827c.18-2.177 2.184-5.056 6.621-5.056 4.898 0 6.69 2.76 6.69 5.883v7.445q0 1.186.181 2.358h-4.163a7.6 7.6 0 0 1-.15-1.718 4.8 4.8 0 0 1-1.843 1.647 4.73 4.73 0 0 1-2.413.498c-3.318 0-5.228-2.201-5.228-4.622-.013-2.697 1.979-4.228 4.468-4.598m4.65 2.823v-.678l-2.857.458c-.971.157-1.706.627-1.706 1.687 0 .797.517 1.562 1.799 1.562s2.75-.671 2.75-3.01zm10.66-16.64a2.7 2.7 0 0 1 1.513.444c.449.296.8.72 1.01 1.218a2.75 2.75 0 0 1-.567 2.984 2.69 2.69 0 0 1-2.954.606 2.7 2.7 0 0 1-1.22-1.005 2.74 2.74 0 0 1-.458-1.519 2.75 2.75 0 0 1 .785-1.915 2.7 2.7 0 0 1 1.891-.813m-2.284 22.61V17.066h4.624v15.228zm18.272-10.631a6.4 6.4 0 0 0-1.462-.15c-1.867 0-3.523 1.097-3.523 4.133v6.648H93.26V17.066h4.45v2.057c.79-1.718 2.707-2.208 3.921-2.208.419-.005.838.046 1.244.15zm7.755 2.797v7.834h-4.824v-21.72h8.091c4.356 0 7.387 2.91 7.387 6.956 0 4.045-2.968 6.93-7.343 6.93zm2.825-4.164c1.824 0 3.068-1.073 3.068-2.754 0-1.68-1.244-2.79-3.068-2.79h-2.794v5.544zm19.971 1.367a6.4 6.4 0 0 0-1.481-.15c-1.867 0-3.529 1.097-3.529 4.133v6.648h-4.561V17.066h4.468v2.057c.791-1.719 2.701-2.208 3.921-2.208a4.7 4.7 0 0 1 1.214.15zm17.575 3.004a8.12 8.12 0 0 1-2.427 5.575 8 8 0 0 1-5.598 2.29 8 8 0 0 1-5.597-2.29 8.12 8.12 0 0 1-2.428-5.575 8.12 8.12 0 0 1 2.428-5.575 8 8 0 0 1 5.597-2.29 8 8 0 0 1 5.598 2.29 8.12 8.12 0 0 1 2.427 5.575m-4.624 0c0-2.578-1.643-3.763-3.404-3.763s-3.404 1.192-3.404 3.763c0 2.572 1.674 3.795 3.404 3.795s3.404-1.223 3.404-3.795m12.952-3.675v11.29h-4.618v-11.29h-2.403v-3.926h2.403v-1.317c0-3.488 2.097-5.877 5.775-5.877a5.9 5.9 0 0 1 2.129.332v3.8a4.8 4.8 0 0 0-1.307-.15 1.79 1.79 0 0 0-1.417.485 1.8 1.8 0 0 0-.562 1.397v1.317h10.187v15.24h-4.624V21.005zm7.841-11.29a2.7 2.7 0 0 1 1.514.442 2.73 2.73 0 0 1 1.183 2.796 2.74 2.74 0 0 1-.732 1.406 2.69 2.69 0 0 1-2.955.609 2.7 2.7 0 0 1-1.221-1.005 2.74 2.74 0 0 1-.459-1.52 2.74 2.74 0 0 1 .761-1.918 2.7 2.7 0 0 1 1.878-.828zm11.887 7.364H182v4.076h-2.95v5.701c0 1.255.672 1.593 1.674 1.593q.615-.011 1.214-.156v3.863c-.76.32-1.58.465-2.402.427-3.112 0-5.042-1.882-5.042-4.905v-6.523h-2.676v-4.076h.76c1.58 0 2.34-1.067 2.34-2.478v-1.963h4.132z" fill="#373F63"/></svg>