<svg width="160" height="60" viewBox="0 0 160 65" fill="none" xmlns="http://www.w3.org/2000/svg"><path d="M32 30.027v12.937a5.73 5.73 0 0 0 1.646 4.039 5.6 5.6 0 0 0 4 1.675h8.577v-6.25h-6.73a1.4 1.4 0 0 1-.998-.416 1.43 1.43 0 0 1-.415-1.004v-5.004h8.125v-5.977z" fill="#12CFAE"/><path d="M48.223 48.678h13.884V35.69a5.7 5.7 0 0 0-1.652-4.023A5.62 5.62 0 0 0 56.465 30h-8.242v6.418h6.54c.375 0 .734.15 1 .418.264.267.413.629.413 1.006v4.827h-7.953zm19.369-5.682v5.682h-3.485V32.925h5.868c3.16 0 5.358 2.11 5.358 5.044 0 2.935-2.162 5.027-5.34 5.027zm2.049-3.02c1.323 0 2.23-.778 2.23-1.997s-.903-2.025-2.23-2.025h-2.027v4.021zm10.933 2.009 2.577-.4c.596-.087.794-.378.794-.756 0-.646-.55-1.2-1.606-1.2a1.76 1.76 0 0 0-1.268.425c-.35.304-.57.734-.61 1.198l-2.907-.6c.13-1.579 1.584-3.667 4.803-3.667 3.552 0 4.852 2.002 4.852 4.267v5.4q-.002.86.13 1.71H84.32a5.5 5.5 0 0 1-.108-1.246c-.334.51-.795.921-1.337 1.194a3.43 3.43 0 0 1-1.75.361c-2.406 0-3.792-1.596-3.792-3.352-.01-1.956 1.435-3.066 3.24-3.335m3.371 2.047v-.492l-2.071.332c-.704.114-1.237.455-1.237 1.224 0 .578.375 1.133 1.304 1.133.93 0 1.995-.487 1.995-2.184zm7.336-11.752a1.96 1.96 0 0 1 1.831 1.206 1.99 1.99 0 0 1-.411 2.164 1.96 1.96 0 0 1-2.143.439 1.97 1.97 0 0 1-.885-.729 2 2 0 0 1-.332-1.101c.002-.52.207-1.019.57-1.389a1.96 1.96 0 0 1 1.37-.59m-1.656 16.399V37.633h3.354v11.045zm12.612-7.711a4.6 4.6 0 0 0-1.061-.109c-1.354 0-2.554.796-2.554 2.998v4.822h-3.354V37.633h3.227v1.492c.573-1.246 1.964-1.601 2.844-1.601a3.4 3.4 0 0 1 .903.109zm5.503 2.029v5.682h-3.498V32.925h5.867c3.16 0 5.358 2.11 5.358 5.044 0 2.935-2.153 5.027-5.326 5.027zm2.049-3.02c1.322 0 2.225-.778 2.225-1.997s-.903-2.025-2.225-2.025h-2.027v4.021zm14.62.991a4.6 4.6 0 0 0-1.074-.109c-1.354 0-2.559.796-2.559 2.998v4.822h-3.309V37.633h3.241v1.492c.573-1.246 1.959-1.601 2.844-1.601q.447-.003.88.109zm13.664 2.006a5.9 5.9 0 0 1-1.761 4.043 5.8 5.8 0 0 1-4.06 1.662 5.8 5.8 0 0 1-4.059-1.662 5.9 5.9 0 0 1-1.761-4.043 5.9 5.9 0 0 1 1.761-4.043 5.8 5.8 0 0 1 4.059-1.662c1.517 0 2.973.596 4.06 1.662a5.9 5.9 0 0 1 1.761 4.043m-3.354 0c0-1.87-1.191-2.73-2.469-2.73s-2.469.865-2.469 2.73 1.214 2.752 2.469 2.752 2.469-.887 2.469-2.752m10.445-2.493v8.189h-3.349V40.48h-1.742v-2.848h1.742v-.955c0-2.53 1.521-4.262 4.189-4.262a4.3 4.3 0 0 1 1.544.24v2.757a3.5 3.5 0 0 0-.948-.109 1.3 1.3 0 0 0-1.028.352 1.33 1.33 0 0 0-.408 1.013v.955h7.389v11.054h-3.353V40.49zm5.688-8.187a1.95 1.95 0 0 1 1.098.32 1.98 1.98 0 0 1 .858 2.028 2 2 0 0 1-.531 1.02 1.96 1.96 0 0 1-2.143.441 1.97 1.97 0 0 1-.886-.728 2 2 0 0 1-.333-1.102 1.98 1.98 0 0 1 .552-1.392 1.95 1.95 0 0 1 1.362-.6zm9.235 5.135h2.14v2.957h-2.14v4.135c0 .91.488 1.155 1.214 1.155a4 4 0 0 0 .881-.113v2.802a4 4 0 0 1-1.743.31c-2.257 0-3.656-1.365-3.656-3.558v-4.73h-1.941v-2.958h.551c1.146 0 1.697-.773 1.697-1.796v-1.424h2.997z" fill="#373F63"/></svg>